<?xml version="1.0" encoding="UTF-8" standalone="no"?>
<svg
   height="288pt"
   version="1.1"
   viewBox="0 0 432 288"
   width="432pt"
   id="svg1271"
   sodipodi:docname="EMC.svg"
   xmlns:inkscape="http://www.inkscape.org/namespaces/inkscape"
   xmlns:sodipodi="http://sodipodi.sourceforge.net/DTD/sodipodi-0.dtd"
   xmlns:xlink="http://www.w3.org/1999/xlink"
   xmlns="http://www.w3.org/2000/svg"
   xmlns:svg="http://www.w3.org/2000/svg"
   xmlns:rdf="http://www.w3.org/1999/02/22-rdf-syntax-ns#"
   xmlns:cc="http://creativecommons.org/ns#"
   xmlns:dc="http://purl.org/dc/elements/1.1/">
  <sodipodi:namedview
     id="namedview1273"
     pagecolor="#ffffff"
     bordercolor="#666666"
     borderopacity="1.0"
     inkscape:pageshadow="2"
     inkscape:pageopacity="0.0"
     inkscape:pagecheckerboard="0"
     inkscape:document-units="pt"
     showgrid="false" />
  <metadata
     id="metadata824">
    <rdf:RDF>
      <cc:Work>
        <dc:type
           rdf:resource="http://purl.org/dc/dcmitype/StillImage" />
        <dc:date>2021-11-12T20:24:33.892099</dc:date>
        <dc:format>image/svg+xml</dc:format>
        <dc:creator>
          <cc:Agent>
            <dc:title>Matplotlib v3.4.3, https://matplotlib.org/</dc:title>
          </cc:Agent>
        </dc:creator>
      </cc:Work>
    </rdf:RDF>
  </metadata>
  <defs
     id="defs828">
    <style
       type="text/css"
       id="style826">*{stroke-linecap:butt;stroke-linejoin:round;}</style>
  </defs>
  <g
     id="figure_1">
    <g
       id="patch_1">
      <path
         d="M 0 288  L 432 288  L 432 0  L 0 0  z "
         style="fill:none;"
         id="path830" />
    </g>
    <g
       id="axes_1">
      <g
         id="patch_2">
        <path
           d="M 54 252  L 388.8 252  L 388.8 34.56  L 54 34.56  z "
           style="fill:#ffffff;"
           id="path833" />
      </g>
      <g
         id="matplotlib.axis_1">
        <g
           id="xtick_1">
          <g
             id="line2d_1">
            <defs
               id="defs837">
              <path
                 d="M 0 0  L 0 3.5  "
                 id="mb1dd38634e"
                 style="stroke:#000000;stroke-width:0.8;" />
            </defs>
            <g
               id="g841">
              <use
                 style="stroke:#000000;stroke-width:0.8;"
                 x="69.218182"
                 xlink:href="#mb1dd38634e"
                 y="252"
                 id="use839" />
            </g>
          </g>
          <g
             id="text_1">
            <!-- 10 -->
            <g
               transform="translate(62.855682 266.598437)scale(0.1 -0.1)"
               id="g852">
              <defs
                 id="defs846">
                <path
                   d="M 794 531  L 1825 531  L 1825 4091  L 703 3866  L 703 4441  L 1819 4666  L 2450 4666  L 2450 531  L 3481 531  L 3481 0  L 794 0  L 794 531  z "
                   id="DejaVuSans-31"
                   transform="scale(0.015625)" />
                <path
                   d="M 2034 4250  Q 1547 4250 1301 3770  Q 1056 3291 1056 2328  Q 1056 1369 1301 889  Q 1547 409 2034 409  Q 2525 409 2770 889  Q 3016 1369 3016 2328  Q 3016 3291 2770 3770  Q 2525 4250 2034 4250  z M 2034 4750  Q 2819 4750 3233 4129  Q 3647 3509 3647 2328  Q 3647 1150 3233 529  Q 2819 -91 2034 -91  Q 1250 -91 836 529  Q 422 1150 422 2328  Q 422 3509 836 4129  Q 1250 4750 2034 4750  z "
                   id="DejaVuSans-30"
                   transform="scale(0.015625)" />
              </defs>
              <use
                 xlink:href="#DejaVuSans-31"
                 id="use848" />
              <use
                 x="63.623047"
                 xlink:href="#DejaVuSans-30"
                 id="use850" />
            </g>
          </g>
        </g>
        <g
           id="xtick_2">
          <g
             id="line2d_2">
            <g
               id="g858">
              <use
                 style="stroke:#000000;stroke-width:0.8;"
                 x="107.263636"
                 xlink:href="#mb1dd38634e"
                 y="252"
                 id="use856" />
            </g>
          </g>
          <g
             id="text_2">
            <!-- 15 -->
            <g
               transform="translate(100.901136 266.598437)scale(0.1 -0.1)"
               id="g868">
              <defs
                 id="defs862">
                <path
                   d="M 691 4666  L 3169 4666  L 3169 4134  L 1269 4134  L 1269 2991  Q 1406 3038 1543 3061  Q 1681 3084 1819 3084  Q 2600 3084 3056 2656  Q 3513 2228 3513 1497  Q 3513 744 3044 326  Q 2575 -91 1722 -91  Q 1428 -91 1123 -41  Q 819 9 494 109  L 494 744  Q 775 591 1075 516  Q 1375 441 1709 441  Q 2250 441 2565 725  Q 2881 1009 2881 1497  Q 2881 1984 2565 2268  Q 2250 2553 1709 2553  Q 1456 2553 1204 2497  Q 953 2441 691 2322  L 691 4666  z "
                   id="DejaVuSans-35"
                   transform="scale(0.015625)" />
              </defs>
              <use
                 xlink:href="#DejaVuSans-31"
                 id="use864" />
              <use
                 x="63.623047"
                 xlink:href="#DejaVuSans-35"
                 id="use866" />
            </g>
          </g>
        </g>
        <g
           id="xtick_3">
          <g
             id="line2d_3">
            <g
               id="g874">
              <use
                 style="stroke:#000000;stroke-width:0.8;"
                 x="145.309091"
                 xlink:href="#mb1dd38634e"
                 y="252"
                 id="use872" />
            </g>
          </g>
          <g
             id="text_3">
            <!-- 20 -->
            <g
               transform="translate(138.946591 266.598437)scale(0.1 -0.1)"
               id="g884">
              <defs
                 id="defs878">
                <path
                   d="M 1228 531  L 3431 531  L 3431 0  L 469 0  L 469 531  Q 828 903 1448 1529  Q 2069 2156 2228 2338  Q 2531 2678 2651 2914  Q 2772 3150 2772 3378  Q 2772 3750 2511 3984  Q 2250 4219 1831 4219  Q 1534 4219 1204 4116  Q 875 4013 500 3803  L 500 4441  Q 881 4594 1212 4672  Q 1544 4750 1819 4750  Q 2544 4750 2975 4387  Q 3406 4025 3406 3419  Q 3406 3131 3298 2873  Q 3191 2616 2906 2266  Q 2828 2175 2409 1742  Q 1991 1309 1228 531  z "
                   id="DejaVuSans-32"
                   transform="scale(0.015625)" />
              </defs>
              <use
                 xlink:href="#DejaVuSans-32"
                 id="use880" />
              <use
                 x="63.623047"
                 xlink:href="#DejaVuSans-30"
                 id="use882" />
            </g>
          </g>
        </g>
        <g
           id="xtick_4">
          <g
             id="line2d_4">
            <g
               id="g890">
              <use
                 style="stroke:#000000;stroke-width:0.8;"
                 x="183.354545"
                 xlink:href="#mb1dd38634e"
                 y="252"
                 id="use888" />
            </g>
          </g>
          <g
             id="text_4">
            <!-- 25 -->
            <g
               transform="translate(176.992045 266.598437)scale(0.1 -0.1)"
               id="g897">
              <use
                 xlink:href="#DejaVuSans-32"
                 id="use893" />
              <use
                 x="63.623047"
                 xlink:href="#DejaVuSans-35"
                 id="use895" />
            </g>
          </g>
        </g>
        <g
           id="xtick_5">
          <g
             id="line2d_5">
            <g
               id="g903">
              <use
                 style="stroke:#000000;stroke-width:0.8;"
                 x="221.4"
                 xlink:href="#mb1dd38634e"
                 y="252"
                 id="use901" />
            </g>
          </g>
          <g
             id="text_5">
            <!-- 30 -->
            <g
               transform="translate(215.0375 266.598437)scale(0.1 -0.1)"
               id="g913">
              <defs
                 id="defs907">
                <path
                   d="M 2597 2516  Q 3050 2419 3304 2112  Q 3559 1806 3559 1356  Q 3559 666 3084 287  Q 2609 -91 1734 -91  Q 1441 -91 1130 -33  Q 819 25 488 141  L 488 750  Q 750 597 1062 519  Q 1375 441 1716 441  Q 2309 441 2620 675  Q 2931 909 2931 1356  Q 2931 1769 2642 2001  Q 2353 2234 1838 2234  L 1294 2234  L 1294 2753  L 1863 2753  Q 2328 2753 2575 2939  Q 2822 3125 2822 3475  Q 2822 3834 2567 4026  Q 2313 4219 1838 4219  Q 1578 4219 1281 4162  Q 984 4106 628 3988  L 628 4550  Q 988 4650 1302 4700  Q 1616 4750 1894 4750  Q 2613 4750 3031 4423  Q 3450 4097 3450 3541  Q 3450 3153 3228 2886  Q 3006 2619 2597 2516  z "
                   id="DejaVuSans-33"
                   transform="scale(0.015625)" />
              </defs>
              <use
                 xlink:href="#DejaVuSans-33"
                 id="use909" />
              <use
                 x="63.623047"
                 xlink:href="#DejaVuSans-30"
                 id="use911" />
            </g>
          </g>
        </g>
        <g
           id="xtick_6">
          <g
             id="line2d_6">
            <g
               id="g919">
              <use
                 style="stroke:#000000;stroke-width:0.8;"
                 x="259.445455"
                 xlink:href="#mb1dd38634e"
                 y="252"
                 id="use917" />
            </g>
          </g>
          <g
             id="text_6">
            <!-- 35 -->
            <g
               transform="translate(253.082955 266.598437)scale(0.1 -0.1)"
               id="g926">
              <use
                 xlink:href="#DejaVuSans-33"
                 id="use922" />
              <use
                 x="63.623047"
                 xlink:href="#DejaVuSans-35"
                 id="use924" />
            </g>
          </g>
        </g>
        <g
           id="xtick_7">
          <g
             id="line2d_7">
            <g
               id="g932">
              <use
                 style="stroke:#000000;stroke-width:0.8;"
                 x="297.490909"
                 xlink:href="#mb1dd38634e"
                 y="252"
                 id="use930" />
            </g>
          </g>
          <g
             id="text_7">
            <!-- 40 -->
            <g
               transform="translate(291.128409 266.598437)scale(0.1 -0.1)"
               id="g942">
              <defs
                 id="defs936">
                <path
                   d="M 2419 4116  L 825 1625  L 2419 1625  L 2419 4116  z M 2253 4666  L 3047 4666  L 3047 1625  L 3713 1625  L 3713 1100  L 3047 1100  L 3047 0  L 2419 0  L 2419 1100  L 313 1100  L 313 1709  L 2253 4666  z "
                   id="DejaVuSans-34"
                   transform="scale(0.015625)" />
              </defs>
              <use
                 xlink:href="#DejaVuSans-34"
                 id="use938" />
              <use
                 x="63.623047"
                 xlink:href="#DejaVuSans-30"
                 id="use940" />
            </g>
          </g>
        </g>
        <g
           id="xtick_8">
          <g
             id="line2d_8">
            <g
               id="g948">
              <use
                 style="stroke:#000000;stroke-width:0.8;"
                 x="335.536364"
                 xlink:href="#mb1dd38634e"
                 y="252"
                 id="use946" />
            </g>
          </g>
          <g
             id="text_8">
            <!-- 45 -->
            <g
               transform="translate(329.173864 266.598437)scale(0.1 -0.1)"
               id="g955">
              <use
                 xlink:href="#DejaVuSans-34"
                 id="use951" />
              <use
                 x="63.623047"
                 xlink:href="#DejaVuSans-35"
                 id="use953" />
            </g>
          </g>
        </g>
        <g
           id="xtick_9">
          <g
             id="line2d_9">
            <g
               id="g961">
              <use
                 style="stroke:#000000;stroke-width:0.8;"
                 x="373.581818"
                 xlink:href="#mb1dd38634e"
                 y="252"
                 id="use959" />
            </g>
          </g>
          <g
             id="text_9">
            <!-- 50 -->
            <g
               transform="translate(367.219318 266.598437)scale(0.1 -0.1)"
               id="g968">
              <use
                 xlink:href="#DejaVuSans-35"
                 id="use964" />
              <use
                 x="63.623047"
                 xlink:href="#DejaVuSans-30"
                 id="use966" />
            </g>
          </g>
        </g>
        <g
           id="text_10">
          <!-- Dataset Size(in k) -->
          <g
             transform="translate(177.023438 280.276563)scale(0.1 -0.1)"
             id="g1023">
            <defs
               id="defs985">
              <path
                 d="M 1259 4147  L 1259 519  L 2022 519  Q 2988 519 3436 956  Q 3884 1394 3884 2338  Q 3884 3275 3436 3711  Q 2988 4147 2022 4147  L 1259 4147  z M 628 4666  L 1925 4666  Q 3281 4666 3915 4102  Q 4550 3538 4550 2338  Q 4550 1131 3912 565  Q 3275 0 1925 0  L 628 0  L 628 4666  z "
                 id="DejaVuSans-44"
                 transform="scale(0.015625)" />
              <path
                 d="M 2194 1759  Q 1497 1759 1228 1600  Q 959 1441 959 1056  Q 959 750 1161 570  Q 1363 391 1709 391  Q 2188 391 2477 730  Q 2766 1069 2766 1631  L 2766 1759  L 2194 1759  z M 3341 1997  L 3341 0  L 2766 0  L 2766 531  Q 2569 213 2275 61  Q 1981 -91 1556 -91  Q 1019 -91 701 211  Q 384 513 384 1019  Q 384 1609 779 1909  Q 1175 2209 1959 2209  L 2766 2209  L 2766 2266  Q 2766 2663 2505 2880  Q 2244 3097 1772 3097  Q 1472 3097 1187 3025  Q 903 2953 641 2809  L 641 3341  Q 956 3463 1253 3523  Q 1550 3584 1831 3584  Q 2591 3584 2966 3190  Q 3341 2797 3341 1997  z "
                 id="DejaVuSans-61"
                 transform="scale(0.015625)" />
              <path
                 d="M 1172 4494  L 1172 3500  L 2356 3500  L 2356 3053  L 1172 3053  L 1172 1153  Q 1172 725 1289 603  Q 1406 481 1766 481  L 2356 481  L 2356 0  L 1766 0  Q 1100 0 847 248  Q 594 497 594 1153  L 594 3053  L 172 3053  L 172 3500  L 594 3500  L 594 4494  L 1172 4494  z "
                 id="DejaVuSans-74"
                 transform="scale(0.015625)" />
              <path
                 d="M 2834 3397  L 2834 2853  Q 2591 2978 2328 3040  Q 2066 3103 1784 3103  Q 1356 3103 1142 2972  Q 928 2841 928 2578  Q 928 2378 1081 2264  Q 1234 2150 1697 2047  L 1894 2003  Q 2506 1872 2764 1633  Q 3022 1394 3022 966  Q 3022 478 2636 193  Q 2250 -91 1575 -91  Q 1294 -91 989 -36  Q 684 19 347 128  L 347 722  Q 666 556 975 473  Q 1284 391 1588 391  Q 1994 391 2212 530  Q 2431 669 2431 922  Q 2431 1156 2273 1281  Q 2116 1406 1581 1522  L 1381 1569  Q 847 1681 609 1914  Q 372 2147 372 2553  Q 372 3047 722 3315  Q 1072 3584 1716 3584  Q 2034 3584 2315 3537  Q 2597 3491 2834 3397  z "
                 id="DejaVuSans-73"
                 transform="scale(0.015625)" />
              <path
                 d="M 3597 1894  L 3597 1613  L 953 1613  Q 991 1019 1311 708  Q 1631 397 2203 397  Q 2534 397 2845 478  Q 3156 559 3463 722  L 3463 178  Q 3153 47 2828 -22  Q 2503 -91 2169 -91  Q 1331 -91 842 396  Q 353 884 353 1716  Q 353 2575 817 3079  Q 1281 3584 2069 3584  Q 2775 3584 3186 3129  Q 3597 2675 3597 1894  z M 3022 2063  Q 3016 2534 2758 2815  Q 2500 3097 2075 3097  Q 1594 3097 1305 2825  Q 1016 2553 972 2059  L 3022 2063  z "
                 id="DejaVuSans-65"
                 transform="scale(0.015625)" />
              <path
                 id="DejaVuSans-20"
                 transform="scale(0.015625)" />
              <path
                 d="M 3425 4513  L 3425 3897  Q 3066 4069 2747 4153  Q 2428 4238 2131 4238  Q 1616 4238 1336 4038  Q 1056 3838 1056 3469  Q 1056 3159 1242 3001  Q 1428 2844 1947 2747  L 2328 2669  Q 3034 2534 3370 2195  Q 3706 1856 3706 1288  Q 3706 609 3251 259  Q 2797 -91 1919 -91  Q 1588 -91 1214 -16  Q 841 59 441 206  L 441 856  Q 825 641 1194 531  Q 1563 422 1919 422  Q 2459 422 2753 634  Q 3047 847 3047 1241  Q 3047 1584 2836 1778  Q 2625 1972 2144 2069  L 1759 2144  Q 1053 2284 737 2584  Q 422 2884 422 3419  Q 422 4038 858 4394  Q 1294 4750 2059 4750  Q 2388 4750 2728 4690  Q 3069 4631 3425 4513  z "
                 id="DejaVuSans-53"
                 transform="scale(0.015625)" />
              <path
                 d="M 603 3500  L 1178 3500  L 1178 0  L 603 0  L 603 3500  z M 603 4863  L 1178 4863  L 1178 4134  L 603 4134  L 603 4863  z "
                 id="DejaVuSans-69"
                 transform="scale(0.015625)" />
              <path
                 d="M 353 3500  L 3084 3500  L 3084 2975  L 922 459  L 3084 459  L 3084 0  L 275 0  L 275 525  L 2438 3041  L 353 3041  L 353 3500  z "
                 id="DejaVuSans-7a"
                 transform="scale(0.015625)" />
              <path
                 d="M 1984 4856  Q 1566 4138 1362 3434  Q 1159 2731 1159 2009  Q 1159 1288 1364 580  Q 1569 -128 1984 -844  L 1484 -844  Q 1016 -109 783 600  Q 550 1309 550 2009  Q 550 2706 781 3412  Q 1013 4119 1484 4856  L 1984 4856  z "
                 id="DejaVuSans-28"
                 transform="scale(0.015625)" />
              <path
                 d="M 3513 2113  L 3513 0  L 2938 0  L 2938 2094  Q 2938 2591 2744 2837  Q 2550 3084 2163 3084  Q 1697 3084 1428 2787  Q 1159 2491 1159 1978  L 1159 0  L 581 0  L 581 3500  L 1159 3500  L 1159 2956  Q 1366 3272 1645 3428  Q 1925 3584 2291 3584  Q 2894 3584 3203 3211  Q 3513 2838 3513 2113  z "
                 id="DejaVuSans-6e"
                 transform="scale(0.015625)" />
              <path
                 d="M 581 4863  L 1159 4863  L 1159 1991  L 2875 3500  L 3609 3500  L 1753 1863  L 3688 0  L 2938 0  L 1159 1709  L 1159 0  L 581 0  L 581 4863  z "
                 id="DejaVuSans-6b"
                 transform="scale(0.015625)" />
              <path
                 d="M 513 4856  L 1013 4856  Q 1481 4119 1714 3412  Q 1947 2706 1947 2009  Q 1947 1309 1714 600  Q 1481 -109 1013 -844  L 513 -844  Q 928 -128 1133 580  Q 1338 1288 1338 2009  Q 1338 2731 1133 3434  Q 928 4138 513 4856  z "
                 id="DejaVuSans-29"
                 transform="scale(0.015625)" />
            </defs>
            <use
               xlink:href="#DejaVuSans-44"
               id="use987" />
            <use
               x="77.001953"
               xlink:href="#DejaVuSans-61"
               id="use989" />
            <use
               x="138.28125"
               xlink:href="#DejaVuSans-74"
               id="use991" />
            <use
               x="177.490234"
               xlink:href="#DejaVuSans-61"
               id="use993" />
            <use
               x="238.769531"
               xlink:href="#DejaVuSans-73"
               id="use995" />
            <use
               x="290.869141"
               xlink:href="#DejaVuSans-65"
               id="use997" />
            <use
               x="352.392578"
               xlink:href="#DejaVuSans-74"
               id="use999" />
            <use
               x="391.601562"
               xlink:href="#DejaVuSans-20"
               id="use1001" />
            <use
               x="423.388672"
               xlink:href="#DejaVuSans-53"
               id="use1003" />
            <use
               x="486.865234"
               xlink:href="#DejaVuSans-69"
               id="use1005" />
            <use
               x="514.648438"
               xlink:href="#DejaVuSans-7a"
               id="use1007" />
            <use
               x="567.138672"
               xlink:href="#DejaVuSans-65"
               id="use1009" />
            <use
               x="628.662109"
               xlink:href="#DejaVuSans-28"
               id="use1011" />
            <use
               x="667.675781"
               xlink:href="#DejaVuSans-69"
               id="use1013" />
            <use
               x="695.458984"
               xlink:href="#DejaVuSans-6e"
               id="use1015" />
            <use
               x="758.837891"
               xlink:href="#DejaVuSans-20"
               id="use1017" />
            <use
               x="790.625"
               xlink:href="#DejaVuSans-6b"
               id="use1019" />
            <use
               x="848.535156"
               xlink:href="#DejaVuSans-29"
               id="use1021" />
          </g>
        </g>
      </g>
      <g
         id="matplotlib.axis_2">
        <g
           id="ytick_1">
          <g
             id="line2d_10">
            <defs
               id="defs1028">
              <path
                 d="M 0 0  L -3.5 0  "
                 id="m5caf00551d"
                 style="stroke:#000000;stroke-width:0.8;" />
            </defs>
            <g
               id="g1032">
              <use
                 style="stroke:#000000;stroke-width:0.8;"
                 x="54"
                 xlink:href="#m5caf00551d"
                 y="248.864665"
                 id="use1030" />
            </g>
          </g>
          <g
             id="text_11">
            <!-- 0.0 -->
            <g
               transform="translate(31.096875 252.663884)scale(0.1 -0.1)"
               id="g1044">
              <defs
                 id="defs1036">
                <path
                   d="M 684 794  L 1344 794  L 1344 0  L 684 0  L 684 794  z "
                   id="DejaVuSans-2e"
                   transform="scale(0.015625)" />
              </defs>
              <use
                 xlink:href="#DejaVuSans-30"
                 id="use1038" />
              <use
                 x="63.623047"
                 xlink:href="#DejaVuSans-2e"
                 id="use1040" />
              <use
                 x="95.410156"
                 xlink:href="#DejaVuSans-30"
                 id="use1042" />
            </g>
          </g>
        </g>
        <g
           id="ytick_2">
          <g
             id="line2d_11">
            <g
               id="g1050">
              <use
                 style="stroke:#000000;stroke-width:0.8;"
                 x="54"
                 xlink:href="#m5caf00551d"
                 y="215.123158"
                 id="use1048" />
            </g>
          </g>
          <g
             id="text_12">
            <!-- 0.5 -->
            <g
               transform="translate(31.096875 218.922377)scale(0.1 -0.1)"
               id="g1059">
              <use
                 xlink:href="#DejaVuSans-30"
                 id="use1053" />
              <use
                 x="63.623047"
                 xlink:href="#DejaVuSans-2e"
                 id="use1055" />
              <use
                 x="95.410156"
                 xlink:href="#DejaVuSans-35"
                 id="use1057" />
            </g>
          </g>
        </g>
        <g
           id="ytick_3">
          <g
             id="line2d_12">
            <g
               id="g1065">
              <use
                 style="stroke:#000000;stroke-width:0.8;"
                 x="54"
                 xlink:href="#m5caf00551d"
                 y="181.381652"
                 id="use1063" />
            </g>
          </g>
          <g
             id="text_13">
            <!-- 1.0 -->
            <g
               transform="translate(31.096875 185.180871)scale(0.1 -0.1)"
               id="g1074">
              <use
                 xlink:href="#DejaVuSans-31"
                 id="use1068" />
              <use
                 x="63.623047"
                 xlink:href="#DejaVuSans-2e"
                 id="use1070" />
              <use
                 x="95.410156"
                 xlink:href="#DejaVuSans-30"
                 id="use1072" />
            </g>
          </g>
        </g>
        <g
           id="ytick_4">
          <g
             id="line2d_13">
            <g
               id="g1080">
              <use
                 style="stroke:#000000;stroke-width:0.8;"
                 x="54"
                 xlink:href="#m5caf00551d"
                 y="147.640145"
                 id="use1078" />
            </g>
          </g>
          <g
             id="text_14">
            <!-- 1.5 -->
            <g
               transform="translate(31.096875 151.439364)scale(0.1 -0.1)"
               id="g1089">
              <use
                 xlink:href="#DejaVuSans-31"
                 id="use1083" />
              <use
                 x="63.623047"
                 xlink:href="#DejaVuSans-2e"
                 id="use1085" />
              <use
                 x="95.410156"
                 xlink:href="#DejaVuSans-35"
                 id="use1087" />
            </g>
          </g>
        </g>
        <g
           id="ytick_5">
          <g
             id="line2d_14">
            <g
               id="g1095">
              <use
                 style="stroke:#000000;stroke-width:0.8;"
                 x="54"
                 xlink:href="#m5caf00551d"
                 y="113.898639"
                 id="use1093" />
            </g>
          </g>
          <g
             id="text_15">
            <!-- 2.0 -->
            <g
               transform="translate(31.096875 117.697858)scale(0.1 -0.1)"
               id="g1104">
              <use
                 xlink:href="#DejaVuSans-32"
                 id="use1098" />
              <use
                 x="63.623047"
                 xlink:href="#DejaVuSans-2e"
                 id="use1100" />
              <use
                 x="95.410156"
                 xlink:href="#DejaVuSans-30"
                 id="use1102" />
            </g>
          </g>
        </g>
        <g
           id="ytick_6">
          <g
             id="line2d_15">
            <g
               id="g1110">
              <use
                 style="stroke:#000000;stroke-width:0.8;"
                 x="54"
                 xlink:href="#m5caf00551d"
                 y="80.157132"
                 id="use1108" />
            </g>
          </g>
          <g
             id="text_16">
            <!-- 2.5 -->
            <g
               transform="translate(31.096875 83.956351)scale(0.1 -0.1)"
               id="g1119">
              <use
                 xlink:href="#DejaVuSans-32"
                 id="use1113" />
              <use
                 x="63.623047"
                 xlink:href="#DejaVuSans-2e"
                 id="use1115" />
              <use
                 x="95.410156"
                 xlink:href="#DejaVuSans-35"
                 id="use1117" />
            </g>
          </g>
        </g>
        <g
           id="ytick_7">
          <g
             id="line2d_16">
            <g
               id="g1125">
              <use
                 style="stroke:#000000;stroke-width:0.8;"
                 x="54"
                 xlink:href="#m5caf00551d"
                 y="46.415626"
                 id="use1123" />
            </g>
          </g>
          <g
             id="text_17">
            <!-- 3.0 -->
            <g
               transform="translate(31.096875 50.214845)scale(0.1 -0.1)"
               id="g1134">
              <use
                 xlink:href="#DejaVuSans-33"
                 id="use1128" />
              <use
                 x="63.623047"
                 xlink:href="#DejaVuSans-2e"
                 id="use1130" />
              <use
                 x="95.410156"
                 xlink:href="#DejaVuSans-30"
                 id="use1132" />
            </g>
          </g>
        </g>
        <g
           id="text_18">
          <!-- Error(Train/Test) -->
          <g
             transform="translate(25.017187 182.890156)rotate(-90)scale(0.1 -0.1)"
             id="g1179">
            <defs
               id="defs1143">
              <path
                 d="M 628 4666  L 3578 4666  L 3578 4134  L 1259 4134  L 1259 2753  L 3481 2753  L 3481 2222  L 1259 2222  L 1259 531  L 3634 531  L 3634 0  L 628 0  L 628 4666  z "
                 id="DejaVuSans-45"
                 transform="scale(0.015625)" />
              <path
                 d="M 2631 2963  Q 2534 3019 2420 3045  Q 2306 3072 2169 3072  Q 1681 3072 1420 2755  Q 1159 2438 1159 1844  L 1159 0  L 581 0  L 581 3500  L 1159 3500  L 1159 2956  Q 1341 3275 1631 3429  Q 1922 3584 2338 3584  Q 2397 3584 2469 3576  Q 2541 3569 2628 3553  L 2631 2963  z "
                 id="DejaVuSans-72"
                 transform="scale(0.015625)" />
              <path
                 d="M 1959 3097  Q 1497 3097 1228 2736  Q 959 2375 959 1747  Q 959 1119 1226 758  Q 1494 397 1959 397  Q 2419 397 2687 759  Q 2956 1122 2956 1747  Q 2956 2369 2687 2733  Q 2419 3097 1959 3097  z M 1959 3584  Q 2709 3584 3137 3096  Q 3566 2609 3566 1747  Q 3566 888 3137 398  Q 2709 -91 1959 -91  Q 1206 -91 779 398  Q 353 888 353 1747  Q 353 2609 779 3096  Q 1206 3584 1959 3584  z "
                 id="DejaVuSans-6f"
                 transform="scale(0.015625)" />
              <path
                 d="M -19 4666  L 3928 4666  L 3928 4134  L 2272 4134  L 2272 0  L 1638 0  L 1638 4134  L -19 4134  L -19 4666  z "
                 id="DejaVuSans-54"
                 transform="scale(0.015625)" />
              <path
                 d="M 1625 4666  L 2156 4666  L 531 -594  L 0 -594  L 1625 4666  z "
                 id="DejaVuSans-2f"
                 transform="scale(0.015625)" />
            </defs>
            <use
               xlink:href="#DejaVuSans-45"
               id="use1145" />
            <use
               x="63.183594"
               xlink:href="#DejaVuSans-72"
               id="use1147" />
            <use
               x="102.546875"
               xlink:href="#DejaVuSans-72"
               id="use1149" />
            <use
               x="141.410156"
               xlink:href="#DejaVuSans-6f"
               id="use1151" />
            <use
               x="202.591797"
               xlink:href="#DejaVuSans-72"
               id="use1153" />
            <use
               x="243.705078"
               xlink:href="#DejaVuSans-28"
               id="use1155" />
            <use
               x="282.71875"
               xlink:href="#DejaVuSans-54"
               id="use1157" />
            <use
               x="329.052734"
               xlink:href="#DejaVuSans-72"
               id="use1159" />
            <use
               x="370.166016"
               xlink:href="#DejaVuSans-61"
               id="use1161" />
            <use
               x="431.445312"
               xlink:href="#DejaVuSans-69"
               id="use1163" />
            <use
               x="459.228516"
               xlink:href="#DejaVuSans-6e"
               id="use1165" />
            <use
               x="522.607422"
               xlink:href="#DejaVuSans-2f"
               id="use1167" />
            <use
               x="556.298828"
               xlink:href="#DejaVuSans-54"
               id="use1169" />
            <use
               x="600.382812"
               xlink:href="#DejaVuSans-65"
               id="use1171" />
            <use
               x="661.90625"
               xlink:href="#DejaVuSans-73"
               id="use1173" />
            <use
               x="714.005859"
               xlink:href="#DejaVuSans-74"
               id="use1175" />
            <use
               x="753.214844"
               xlink:href="#DejaVuSans-29"
               id="use1177" />
          </g>
        </g>
      </g>
      <g
         id="line2d_17">
        <path
           clip-path="url(#pc45546e6d4)"
           d="M 69.218182 241.95658  L 145.309091 180.172983  L 221.4 167.577678  L 297.490909 166.347771  L 373.581818 170.19865  "
           style="fill:none;stroke:#1f77b4;stroke-linecap:square;stroke-width:1.5;"
           id="path1183" />
      </g>
      <g
         id="line2d_18">
        <path
           clip-path="url(#pc45546e6d4)"
           d="M 69.218182 44.443636  L 145.309091 117.429994  L 221.4 129.30949  L 297.490909 141.766186  L 373.581818 152.235174  "
           style="fill:none;stroke:#008000;stroke-linecap:square;stroke-width:1.5;"
           id="path1186" />
      </g>
      <g
         id="line2d_19">
        <path
           clip-path="url(#pc45546e6d4)"
           d="M 69.218182 242.116364  L 145.309091 242.116364  L 221.4 242.116364  L 297.490909 242.116364  L 373.581818 242.116364  "
           style="fill:none;stroke:#ff0000;stroke-linecap:square;stroke-width:1.5;"
           id="path1189" />
      </g>
      <g
         id="patch_3">
        <path
           d="M 54 252  L 54 34.56  "
           style="fill:none;stroke:#000000;stroke-linecap:square;stroke-linejoin:miter;stroke-width:0.8;"
           id="path1192" />
      </g>
      <g
         id="patch_4">
        <path
           d="M 388.8 252  L 388.8 34.56  "
           style="fill:none;stroke:#000000;stroke-linecap:square;stroke-linejoin:miter;stroke-width:0.8;"
           id="path1195" />
      </g>
      <g
         id="patch_5">
        <path
           d="M 54 252  L 388.8 252  "
           style="fill:none;stroke:#000000;stroke-linecap:square;stroke-linejoin:miter;stroke-width:0.8;"
           id="path1198" />
      </g>
      <g
         id="patch_6">
        <path
           d="M 54 34.56  L 388.8 34.56  "
           style="fill:none;stroke:#000000;stroke-linecap:square;stroke-linejoin:miter;stroke-width:0.8;"
           id="path1201" />
      </g>
      <g
         id="legend_1">
        <g
           id="patch_7">
          <path
             d="M 298.264063 71.91625  L 381.8 71.91625  Q 383.8 71.91625 383.8 69.91625  L 383.8 41.56  Q 383.8 39.56 381.8 39.56  L 298.264063 39.56  Q 296.264063 39.56 296.264063 41.56  L 296.264063 69.91625  Q 296.264063 71.91625 298.264063 71.91625  z "
             style="fill:#ffffff;opacity:0.8;stroke:#cccccc;stroke-linejoin:miter;"
             id="path1204" />
        </g>
        <g
           id="line2d_20">
          <path
             d="M 300.264063 47.658437  L 320.264063 47.658437  "
             style="fill:none;stroke:#1f77b4;stroke-linecap:square;stroke-width:1.5;"
             id="path1207" />
        </g>
        <g
           id="line2d_21" />
        <g
           id="text_19">
          <!-- Train Error -->
          <g
             transform="translate(328.264063 51.158437)scale(0.1 -0.1)"
             id="g1233">
            <use
               xlink:href="#DejaVuSans-54"
               id="use1211" />
            <use
               x="46.333984"
               xlink:href="#DejaVuSans-72"
               id="use1213" />
            <use
               x="87.447266"
               xlink:href="#DejaVuSans-61"
               id="use1215" />
            <use
               x="148.726562"
               xlink:href="#DejaVuSans-69"
               id="use1217" />
            <use
               x="176.509766"
               xlink:href="#DejaVuSans-6e"
               id="use1219" />
            <use
               x="239.888672"
               xlink:href="#DejaVuSans-20"
               id="use1221" />
            <use
               x="271.675781"
               xlink:href="#DejaVuSans-45"
               id="use1223" />
            <use
               x="334.859375"
               xlink:href="#DejaVuSans-72"
               id="use1225" />
            <use
               x="374.222656"
               xlink:href="#DejaVuSans-72"
               id="use1227" />
            <use
               x="413.085938"
               xlink:href="#DejaVuSans-6f"
               id="use1229" />
            <use
               x="474.267578"
               xlink:href="#DejaVuSans-72"
               id="use1231" />
          </g>
        </g>
        <g
           id="line2d_22">
          <path
             d="M 300.264063 62.336562  L 320.264063 62.336562  "
             style="fill:none;stroke:#008000;stroke-linecap:square;stroke-width:1.5;"
             id="path1236" />
        </g>
        <g
           id="line2d_23" />
        <g
           id="text_20">
          <!-- Test Error -->
          <g
             transform="translate(328.264063 65.836562)scale(0.1 -0.1)"
             id="g1260">
            <use
               xlink:href="#DejaVuSans-54"
               id="use1240" />
            <use
               x="44.083984"
               xlink:href="#DejaVuSans-65"
               id="use1242" />
            <use
               x="105.607422"
               xlink:href="#DejaVuSans-73"
               id="use1244" />
            <use
               x="157.707031"
               xlink:href="#DejaVuSans-74"
               id="use1246" />
            <use
               x="196.916016"
               xlink:href="#DejaVuSans-20"
               id="use1248" />
            <use
               x="228.703125"
               xlink:href="#DejaVuSans-45"
               id="use1250" />
            <use
               x="291.886719"
               xlink:href="#DejaVuSans-72"
               id="use1252" />
            <use
               x="331.25"
               xlink:href="#DejaVuSans-72"
               id="use1254" />
            <use
               x="370.113281"
               xlink:href="#DejaVuSans-6f"
               id="use1256" />
            <use
               x="431.294922"
               xlink:href="#DejaVuSans-72"
               id="use1258" />
          </g>
        </g>
      </g>
    </g>
  </g>
  <defs
     id="defs1269">
    <clipPath
       id="pc45546e6d4">
      <rect
         height="217.44"
         width="334.8"
         x="54"
         y="34.56"
         id="rect1266" />
    </clipPath>
  </defs>
  <path
     style="fill:#ff0000;stroke:#fb0008;stroke-width:1.55905512;stroke-linecap:butt;stroke-linejoin:miter;stroke-opacity:1;stroke-miterlimit:4;stroke-dasharray:none"
     d="m 69.218182,242.11636 -42.488428,0.0238"
     id="path1421" />
</svg>
