<?xml version="1.0" encoding="UTF-8" standalone="no"?>
<svg
   height="500pt"
   version="1.1"
   viewBox="0 0 432 500"
   width="432pt"
   id="svg1271"
   sodipodi:docname="EMC.svg.2021_11_12_20_28_20.0.svg"
   xmlns:inkscape="http://www.inkscape.org/namespaces/inkscape"
   xmlns:sodipodi="http://sodipodi.sourceforge.net/DTD/sodipodi-0.dtd"
   xmlns:xlink="http://www.w3.org/1999/xlink"
   xmlns="http://www.w3.org/2000/svg"
   xmlns:svg="http://www.w3.org/2000/svg"
   xmlns:rdf="http://www.w3.org/1999/02/22-rdf-syntax-ns#"
   xmlns:cc="http://creativecommons.org/ns#"
   xmlns:dc="http://purl.org/dc/elements/1.1/">
  <sodipodi:namedview
     id="namedview1273"
     pagecolor="#ffffff"
     bordercolor="#666666"
     borderopacity="1.0"
     inkscape:pageshadow="2"
     inkscape:pageopacity="0.0"
     inkscape:pagecheckerboard="0"
     inkscape:document-units="pt"
     showgrid="false"
     height="500pt" />
  <metadata
     id="metadata824">
    <rdf:RDF>
      <cc:Work>
        <dc:type
           rdf:resource="http://purl.org/dc/dcmitype/StillImage" />
        <dc:date>2021-11-12T20:24:33.892099</dc:date>
        <dc:format>image/svg+xml</dc:format>
        <dc:creator>
          <cc:Agent>
            <dc:title>Matplotlib v3.4.3, https://matplotlib.org/</dc:title>
          </cc:Agent>
        </dc:creator>
      </cc:Work>
    </rdf:RDF>
  </metadata>
  <defs
     id="defs828">
    <marker
       style="overflow:visible;"
       id="Arrow1Lend"
       refX="0.0"
       refY="0.0"
       orient="auto"
       inkscape:stockid="Arrow1Lend"
       inkscape:isstock="true">
      <path
         transform="scale(0.8) rotate(180) translate(12.5,0)"
         style="fill-rule:evenodd;fill:context-stroke;stroke:context-stroke;stroke-width:1.0pt;"
         d="M 0.0,0.0 L 5.0,-5.0 L -12.5,0.0 L 5.0,5.0 L 0.0,0.0 z "
         id="path1863" />
    </marker>
    <style
       type="text/css"
       id="style826">*{stroke-linecap:butt;stroke-linejoin:round;}</style>
  </defs>
  <g
     id="figure_1">
    <g
       id="patch_1">
      <path
         d="M 0,288 H 432 V 0 H 0 Z"
         style="fill:none"
         id="path830" />
    </g>
    <g
       id="axes_1">
      <g
         id="patch_2">
        <path
           d="M 54,252 H 388.8 V 34.56 H 54 Z"
           style="fill:#ffffff"
           id="path833" />
      </g>
      <g
         id="matplotlib.axis_1">
        <g
           id="xtick_1">
          <g
             id="line2d_1">
            <defs
               id="defs837">
              <path
                 d="M 0,0 V 3.5"
                 id="mb1dd38634e"
                 style="stroke:#000000;stroke-width:0.8" />
            </defs>
            <g
               id="g841">
              <use
                 style="stroke:#000000;stroke-width:0.8"
                 x="69.218185"
                 xlink:href="#mb1dd38634e"
                 y="252"
                 id="use839"
                 width="100%"
                 height="100%" />
            </g>
          </g>
          <g
             id="text_1">
            <!-- 10 -->
            <g
               transform="matrix(0.1,0,0,-0.1,62.855682,266.59844)"
               id="g852">
              <defs
                 id="defs846">
                <path
                   d="M 794,531 H 1825 V 4091 L 703,3866 v 575 l 1116,225 h 631 V 531 H 3481 V 0 H 794 Z"
                   id="DejaVuSans-31"
                   transform="scale(0.015625)" />
                <path
                   d="m 2034,4250 q -487,0 -733,-480 -245,-479 -245,-1442 0,-959 245,-1439 246,-480 733,-480 491,0 736,480 246,480 246,1439 0,963 -246,1442 -245,480 -736,480 z m 0,500 q 785,0 1199,-621 414,-620 414,-1801 0,-1178 -414,-1799 -414,-620 -1199,-620 -784,0 -1198,620 -414,621 -414,1799 0,1181 414,1801 414,621 1198,621 z"
                   id="DejaVuSans-30"
                   transform="scale(0.015625)" />
              </defs>
              <use
                 xlink:href="#DejaVuSans-31"
                 id="use848"
                 x="0"
                 y="0"
                 width="100%"
                 height="100%" />
              <use
                 x="63.623047"
                 xlink:href="#DejaVuSans-30"
                 id="use850"
                 y="0"
                 width="100%"
                 height="100%" />
            </g>
          </g>
        </g>
        <g
           id="xtick_2">
          <g
             id="line2d_2">
            <g
               id="g858">
              <use
                 style="stroke:#000000;stroke-width:0.8"
                 x="107.26363"
                 xlink:href="#mb1dd38634e"
                 y="252"
                 id="use856"
                 width="100%"
                 height="100%" />
            </g>
          </g>
          <g
             id="text_2">
            <!-- 15 -->
            <g
               transform="matrix(0.1,0,0,-0.1,100.90114,266.59844)"
               id="g868">
              <defs
                 id="defs862">
                <path
                   d="M 691,4666 H 3169 V 4134 H 1269 V 2991 q 137,47 274,70 138,23 276,23 781,0 1237,-428 457,-428 457,-1159 Q 3513,744 3044,326 2575,-91 1722,-91 1428,-91 1123,-41 819,9 494,109 v 635 q 281,-153 581,-228 300,-75 634,-75 541,0 856,284 316,284 316,772 0,487 -316,771 -315,285 -856,285 -253,0 -505,-56 -251,-56 -513,-175 z"
                   id="DejaVuSans-35"
                   transform="scale(0.015625)" />
              </defs>
              <use
                 xlink:href="#DejaVuSans-31"
                 id="use864"
                 x="0"
                 y="0"
                 width="100%"
                 height="100%" />
              <use
                 x="63.623047"
                 xlink:href="#DejaVuSans-35"
                 id="use866"
                 y="0"
                 width="100%"
                 height="100%" />
            </g>
          </g>
        </g>
        <g
           id="xtick_3">
          <g
             id="line2d_3">
            <g
               id="g874">
              <use
                 style="stroke:#000000;stroke-width:0.8"
                 x="145.3091"
                 xlink:href="#mb1dd38634e"
                 y="252"
                 id="use872"
                 width="100%"
                 height="100%" />
            </g>
          </g>
          <g
             id="text_3">
            <!-- 20 -->
            <g
               transform="matrix(0.1,0,0,-0.1,138.94659,266.59844)"
               id="g884">
              <defs
                 id="defs878">
                <path
                   d="M 1228,531 H 3431 V 0 H 469 v 531 q 359,372 979,998 621,627 780,809 303,340 423,576 121,236 121,464 0,372 -261,606 -261,235 -680,235 -297,0 -627,-103 -329,-103 -704,-313 v 638 q 381,153 712,231 332,78 607,78 725,0 1156,-363 431,-362 431,-968 0,-288 -108,-546 -107,-257 -392,-607 -78,-91 -497,-524 Q 1991,1309 1228,531 Z"
                   id="DejaVuSans-32"
                   transform="scale(0.015625)" />
              </defs>
              <use
                 xlink:href="#DejaVuSans-32"
                 id="use880"
                 x="0"
                 y="0"
                 width="100%"
                 height="100%" />
              <use
                 x="63.623047"
                 xlink:href="#DejaVuSans-30"
                 id="use882"
                 y="0"
                 width="100%"
                 height="100%" />
            </g>
          </g>
        </g>
        <g
           id="xtick_4">
          <g
             id="line2d_4">
            <g
               id="g890">
              <use
                 style="stroke:#000000;stroke-width:0.8"
                 x="183.35454"
                 xlink:href="#mb1dd38634e"
                 y="252"
                 id="use888"
                 width="100%"
                 height="100%" />
            </g>
          </g>
          <g
             id="text_4">
            <!-- 25 -->
            <g
               transform="matrix(0.1,0,0,-0.1,176.99204,266.59844)"
               id="g897">
              <use
                 xlink:href="#DejaVuSans-32"
                 id="use893"
                 x="0"
                 y="0"
                 width="100%"
                 height="100%" />
              <use
                 x="63.623047"
                 xlink:href="#DejaVuSans-35"
                 id="use895"
                 y="0"
                 width="100%"
                 height="100%" />
            </g>
          </g>
        </g>
        <g
           id="xtick_5">
          <g
             id="line2d_5">
            <g
               id="g903">
              <use
                 style="stroke:#000000;stroke-width:0.8"
                 x="221.39999"
                 xlink:href="#mb1dd38634e"
                 y="252"
                 id="use901"
                 width="100%"
                 height="100%" />
            </g>
          </g>
          <g
             id="text_5">
            <!-- 30 -->
            <g
               transform="matrix(0.1,0,0,-0.1,215.0375,266.59844)"
               id="g913">
              <defs
                 id="defs907">
                <path
                   d="m 2597,2516 q 453,-97 707,-404 255,-306 255,-756 0,-690 -475,-1069 -475,-378 -1350,-378 -293,0 -604,58 -311,58 -642,174 v 609 q 262,-153 574,-231 313,-78 654,-78 593,0 904,234 311,234 311,681 0,413 -289,645 -289,233 -804,233 h -544 v 519 h 569 q 465,0 712,186 247,186 247,536 0,359 -255,551 -254,193 -729,193 -260,0 -557,-57 -297,-56 -653,-174 v 562 q 360,100 674,150 314,50 592,50 719,0 1137,-327 419,-326 419,-882 0,-388 -222,-655 -222,-267 -631,-370 z"
                   id="DejaVuSans-33"
                   transform="scale(0.015625)" />
              </defs>
              <use
                 xlink:href="#DejaVuSans-33"
                 id="use909"
                 x="0"
                 y="0"
                 width="100%"
                 height="100%" />
              <use
                 x="63.623047"
                 xlink:href="#DejaVuSans-30"
                 id="use911"
                 y="0"
                 width="100%"
                 height="100%" />
            </g>
          </g>
        </g>
        <g
           id="xtick_6">
          <g
             id="line2d_6">
            <g
               id="g919">
              <use
                 style="stroke:#000000;stroke-width:0.8"
                 x="259.44547"
                 xlink:href="#mb1dd38634e"
                 y="252"
                 id="use917"
                 width="100%"
                 height="100%" />
            </g>
          </g>
          <g
             id="text_6">
            <!-- 35 -->
            <g
               transform="matrix(0.1,0,0,-0.1,253.08295,266.59844)"
               id="g926">
              <use
                 xlink:href="#DejaVuSans-33"
                 id="use922"
                 x="0"
                 y="0"
                 width="100%"
                 height="100%" />
              <use
                 x="63.623047"
                 xlink:href="#DejaVuSans-35"
                 id="use924"
                 y="0"
                 width="100%"
                 height="100%" />
            </g>
          </g>
        </g>
        <g
           id="xtick_7">
          <g
             id="line2d_7">
            <g
               id="g932">
              <use
                 style="stroke:#000000;stroke-width:0.8"
                 x="297.49091"
                 xlink:href="#mb1dd38634e"
                 y="252"
                 id="use930"
                 width="100%"
                 height="100%" />
            </g>
          </g>
          <g
             id="text_7">
            <!-- 40 -->
            <g
               transform="matrix(0.1,0,0,-0.1,291.12841,266.59844)"
               id="g942">
              <defs
                 id="defs936">
                <path
                   d="M 2419,4116 825,1625 h 1594 z m -166,550 h 794 V 1625 h 666 V 1100 H 3047 V 0 H 2419 V 1100 H 313 v 609 z"
                   id="DejaVuSans-34"
                   transform="scale(0.015625)" />
              </defs>
              <use
                 xlink:href="#DejaVuSans-34"
                 id="use938"
                 x="0"
                 y="0"
                 width="100%"
                 height="100%" />
              <use
                 x="63.623047"
                 xlink:href="#DejaVuSans-30"
                 id="use940"
                 y="0"
                 width="100%"
                 height="100%" />
            </g>
          </g>
        </g>
        <g
           id="xtick_8">
          <g
             id="line2d_8">
            <g
               id="g948">
              <use
                 style="stroke:#000000;stroke-width:0.8"
                 x="335.53638"
                 xlink:href="#mb1dd38634e"
                 y="252"
                 id="use946"
                 width="100%"
                 height="100%" />
            </g>
          </g>
          <g
             id="text_8">
            <!-- 45 -->
            <g
               transform="matrix(0.1,0,0,-0.1,329.17386,266.59844)"
               id="g955">
              <use
                 xlink:href="#DejaVuSans-34"
                 id="use951"
                 x="0"
                 y="0"
                 width="100%"
                 height="100%" />
              <use
                 x="63.623047"
                 xlink:href="#DejaVuSans-35"
                 id="use953"
                 y="0"
                 width="100%"
                 height="100%" />
            </g>
          </g>
        </g>
        <g
           id="xtick_9">
          <g
             id="line2d_9">
            <g
               id="g961">
              <use
                 style="stroke:#000000;stroke-width:0.8"
                 x="373.58182"
                 xlink:href="#mb1dd38634e"
                 y="252"
                 id="use959"
                 width="100%"
                 height="100%" />
            </g>
          </g>
          <g
             id="text_9">
            <!-- 50 -->
            <g
               transform="matrix(0.1,0,0,-0.1,367.21932,266.59844)"
               id="g968">
              <use
                 xlink:href="#DejaVuSans-35"
                 id="use964"
                 x="0"
                 y="0"
                 width="100%"
                 height="100%" />
              <use
                 x="63.623047"
                 xlink:href="#DejaVuSans-30"
                 id="use966"
                 y="0"
                 width="100%"
                 height="100%" />
            </g>
          </g>
        </g>
        <g
           id="text_10">
          <!-- Dataset Size(in k) -->
          <g
             transform="matrix(0.1,0,0,-0.1,177.02344,280.27656)"
             id="g1023">
            <defs
               id="defs985">
              <path
                 d="M 1259,4147 V 519 h 763 q 966,0 1414,437 448,438 448,1382 0,937 -448,1373 -448,436 -1414,436 z m -631,519 h 1297 q 1356,0 1990,-564 635,-564 635,-1764 Q 4550,1131 3912,565 3275,0 1925,0 H 628 Z"
                 id="DejaVuSans-44"
                 transform="scale(0.015625)" />
              <path
                 d="m 2194,1759 q -697,0 -966,-159 -269,-159 -269,-544 0,-306 202,-486 202,-179 548,-179 479,0 768,339 289,339 289,901 v 128 z m 1147,238 V 0 H 2766 V 531 Q 2569,213 2275,61 1981,-91 1556,-91 q -537,0 -855,302 -317,302 -317,808 0,590 395,890 396,300 1180,300 h 807 v 57 q 0,397 -261,614 -261,217 -733,217 -300,0 -585,-72 -284,-72 -546,-216 v 532 q 315,122 612,182 297,61 578,61 760,0 1135,-394 375,-393 375,-1193 z"
                 id="DejaVuSans-61"
                 transform="scale(0.015625)" />
              <path
                 d="M 1172,4494 V 3500 H 2356 V 3053 H 1172 V 1153 q 0,-428 117,-550 117,-122 477,-122 h 590 V 0 H 1766 Q 1100,0 847,248 594,497 594,1153 V 3053 H 172 v 447 h 422 v 994 z"
                 id="DejaVuSans-74"
                 transform="scale(0.015625)" />
              <path
                 d="m 2834,3397 v -544 q -243,125 -506,187 -262,63 -544,63 -428,0 -642,-131 -214,-131 -214,-394 0,-200 153,-314 153,-114 616,-217 l 197,-44 q 612,-131 870,-370 258,-239 258,-667 0,-488 -386,-773 Q 2250,-91 1575,-91 1294,-91 989,-36 684,19 347,128 v 594 q 319,-166 628,-249 309,-82 613,-82 406,0 624,139 219,139 219,392 0,234 -158,359 -157,125 -692,241 l -200,47 q -534,112 -772,345 -237,233 -237,639 0,494 350,762 350,269 994,269 318,0 599,-47 282,-46 519,-140 z"
                 id="DejaVuSans-73"
                 transform="scale(0.015625)" />
              <path
                 d="M 3597,1894 V 1613 H 953 q 38,-594 358,-905 320,-311 892,-311 331,0 642,81 311,81 618,244 V 178 Q 3153,47 2828,-22 2503,-91 2169,-91 1331,-91 842,396 353,884 353,1716 q 0,859 464,1363 464,505 1252,505 706,0 1117,-455 411,-454 411,-1235 z m -575,169 q -6,471 -264,752 -258,282 -683,282 -481,0 -770,-272 -289,-272 -333,-766 z"
                 id="DejaVuSans-65"
                 transform="scale(0.015625)" />
              <path
                 id="DejaVuSans-20"
                 transform="scale(0.015625)"
                 d="" />
              <path
                 d="m 3425,4513 v -616 q -359,172 -678,256 -319,85 -616,85 -515,0 -795,-200 -280,-200 -280,-569 0,-310 186,-468 186,-157 705,-254 l 381,-78 q 706,-135 1042,-474 336,-339 336,-907 0,-679 -455,-1029 -454,-350 -1332,-350 -331,0 -705,75 -373,75 -773,222 v 650 q 384,-215 753,-325 369,-109 725,-109 540,0 834,212 294,213 294,607 0,343 -211,537 -211,194 -692,291 l -385,75 q -706,140 -1022,440 -315,300 -315,835 0,619 436,975 436,356 1201,356 329,0 669,-60 341,-59 697,-177 z"
                 id="DejaVuSans-53"
                 transform="scale(0.015625)" />
              <path
                 d="m 603,3500 h 575 V 0 H 603 Z m 0,1363 h 575 V 4134 H 603 Z"
                 id="DejaVuSans-69"
                 transform="scale(0.015625)" />
              <path
                 d="M 353,3500 H 3084 V 2975 L 922,459 H 3084 V 0 H 275 V 525 L 2438,3041 H 353 Z"
                 id="DejaVuSans-7a"
                 transform="scale(0.015625)" />
              <path
                 d="m 1984,4856 q -418,-718 -622,-1422 -203,-703 -203,-1425 0,-721 205,-1429 205,-708 620,-1424 h -500 q -468,735 -701,1444 -233,709 -233,1409 0,697 231,1403 232,707 703,1444 z"
                 id="DejaVuSans-28"
                 transform="scale(0.015625)" />
              <path
                 d="M 3513,2113 V 0 h -575 v 2094 q 0,497 -194,743 -194,247 -581,247 -466,0 -735,-297 -269,-296 -269,-809 V 0 H 581 v 3500 h 578 v -544 q 207,316 486,472 280,156 646,156 603,0 912,-373 310,-373 310,-1098 z"
                 id="DejaVuSans-6e"
                 transform="scale(0.015625)" />
              <path
                 d="m 581,4863 h 578 V 1991 l 1716,1509 h 734 L 1753,1863 3688,0 H 2938 L 1159,1709 V 0 H 581 Z"
                 id="DejaVuSans-6b"
                 transform="scale(0.015625)" />
              <path
                 d="m 513,4856 h 500 q 468,-737 701,-1444 233,-706 233,-1403 0,-700 -233,-1409 -233,-709 -701,-1444 H 513 q 415,716 620,1424 205,708 205,1429 0,722 -205,1425 -205,704 -620,1422 z"
                 id="DejaVuSans-29"
                 transform="scale(0.015625)" />
            </defs>
            <use
               xlink:href="#DejaVuSans-44"
               id="use987"
               x="0"
               y="0"
               width="100%"
               height="100%" />
            <use
               x="77.001953"
               xlink:href="#DejaVuSans-61"
               id="use989"
               y="0"
               width="100%"
               height="100%" />
            <use
               x="138.28125"
               xlink:href="#DejaVuSans-74"
               id="use991"
               y="0"
               width="100%"
               height="100%" />
            <use
               x="177.49023"
               xlink:href="#DejaVuSans-61"
               id="use993"
               y="0"
               width="100%"
               height="100%" />
            <use
               x="238.76953"
               xlink:href="#DejaVuSans-73"
               id="use995"
               y="0"
               width="100%"
               height="100%" />
            <use
               x="290.86914"
               xlink:href="#DejaVuSans-65"
               id="use997"
               y="0"
               width="100%"
               height="100%" />
            <use
               x="352.39258"
               xlink:href="#DejaVuSans-74"
               id="use999"
               y="0"
               width="100%"
               height="100%" />
            <use
               x="391.60156"
               xlink:href="#DejaVuSans-20"
               id="use1001"
               y="0"
               width="100%"
               height="100%" />
            <use
               x="423.38867"
               xlink:href="#DejaVuSans-53"
               id="use1003"
               y="0"
               width="100%"
               height="100%" />
            <use
               x="486.86523"
               xlink:href="#DejaVuSans-69"
               id="use1005"
               y="0"
               width="100%"
               height="100%" />
            <use
               x="514.64844"
               xlink:href="#DejaVuSans-7a"
               id="use1007"
               y="0"
               width="100%"
               height="100%" />
            <use
               x="567.13867"
               xlink:href="#DejaVuSans-65"
               id="use1009"
               y="0"
               width="100%"
               height="100%" />
            <use
               x="628.66211"
               xlink:href="#DejaVuSans-28"
               id="use1011"
               y="0"
               width="100%"
               height="100%" />
            <use
               x="667.67578"
               xlink:href="#DejaVuSans-69"
               id="use1013"
               y="0"
               width="100%"
               height="100%" />
            <use
               x="695.45898"
               xlink:href="#DejaVuSans-6e"
               id="use1015"
               y="0"
               width="100%"
               height="100%" />
            <use
               x="758.83789"
               xlink:href="#DejaVuSans-20"
               id="use1017"
               y="0"
               width="100%"
               height="100%" />
            <use
               x="790.625"
               xlink:href="#DejaVuSans-6b"
               id="use1019"
               y="0"
               width="100%"
               height="100%" />
            <use
               x="848.53516"
               xlink:href="#DejaVuSans-29"
               id="use1021"
               y="0"
               width="100%"
               height="100%" />
          </g>
        </g>
      </g>
      <g
         id="matplotlib.axis_2">
        <g
           id="ytick_1">
          <g
             id="line2d_10">
            <defs
               id="defs1028">
              <path
                 d="M 0,0 H -3.5"
                 id="m5caf00551d"
                 style="stroke:#000000;stroke-width:0.8" />
            </defs>
            <g
               id="g1032">
              <use
                 style="stroke:#000000;stroke-width:0.8"
                 x="54"
                 xlink:href="#m5caf00551d"
                 y="248.86467"
                 id="use1030"
                 width="100%"
                 height="100%" />
            </g>
          </g>
          <g
             id="text_11">
            <!-- 0.0 -->
            <g
               transform="matrix(0.1,0,0,-0.1,31.096875,252.66388)"
               id="g1044">
              <defs
                 id="defs1036">
                <path
                   d="m 684,794 h 660 V 0 H 684 Z"
                   id="DejaVuSans-2e"
                   transform="scale(0.015625)" />
              </defs>
              <use
                 xlink:href="#DejaVuSans-30"
                 id="use1038"
                 x="0"
                 y="0"
                 width="100%"
                 height="100%" />
              <use
                 x="63.623047"
                 xlink:href="#DejaVuSans-2e"
                 id="use1040"
                 y="0"
                 width="100%"
                 height="100%" />
              <use
                 x="95.410156"
                 xlink:href="#DejaVuSans-30"
                 id="use1042"
                 y="0"
                 width="100%"
                 height="100%" />
            </g>
          </g>
        </g>
        <g
           id="ytick_2">
          <g
             id="line2d_11">
            <g
               id="g1050">
              <use
                 style="stroke:#000000;stroke-width:0.8"
                 x="54"
                 xlink:href="#m5caf00551d"
                 y="215.12315"
                 id="use1048"
                 width="100%"
                 height="100%" />
            </g>
          </g>
          <g
             id="text_12">
            <!-- 0.5 -->
            <g
               transform="matrix(0.1,0,0,-0.1,31.096875,218.92238)"
               id="g1059">
              <use
                 xlink:href="#DejaVuSans-30"
                 id="use1053"
                 x="0"
                 y="0"
                 width="100%"
                 height="100%" />
              <use
                 x="63.623047"
                 xlink:href="#DejaVuSans-2e"
                 id="use1055"
                 y="0"
                 width="100%"
                 height="100%" />
              <use
                 x="95.410156"
                 xlink:href="#DejaVuSans-35"
                 id="use1057"
                 y="0"
                 width="100%"
                 height="100%" />
            </g>
          </g>
        </g>
        <g
           id="ytick_3">
          <g
             id="line2d_12">
            <g
               id="g1065">
              <use
                 style="stroke:#000000;stroke-width:0.8"
                 x="54"
                 xlink:href="#m5caf00551d"
                 y="181.38165"
                 id="use1063"
                 width="100%"
                 height="100%" />
            </g>
          </g>
          <g
             id="text_13">
            <!-- 1.0 -->
            <g
               transform="matrix(0.1,0,0,-0.1,31.096875,185.18087)"
               id="g1074">
              <use
                 xlink:href="#DejaVuSans-31"
                 id="use1068"
                 x="0"
                 y="0"
                 width="100%"
                 height="100%" />
              <use
                 x="63.623047"
                 xlink:href="#DejaVuSans-2e"
                 id="use1070"
                 y="0"
                 width="100%"
                 height="100%" />
              <use
                 x="95.410156"
                 xlink:href="#DejaVuSans-30"
                 id="use1072"
                 y="0"
                 width="100%"
                 height="100%" />
            </g>
          </g>
        </g>
        <g
           id="ytick_4">
          <g
             id="line2d_13">
            <g
               id="g1080">
              <use
                 style="stroke:#000000;stroke-width:0.8"
                 x="54"
                 xlink:href="#m5caf00551d"
                 y="147.64015"
                 id="use1078"
                 width="100%"
                 height="100%" />
            </g>
          </g>
          <g
             id="text_14">
            <!-- 1.5 -->
            <g
               transform="matrix(0.1,0,0,-0.1,31.096875,151.43936)"
               id="g1089">
              <use
                 xlink:href="#DejaVuSans-31"
                 id="use1083"
                 x="0"
                 y="0"
                 width="100%"
                 height="100%" />
              <use
                 x="63.623047"
                 xlink:href="#DejaVuSans-2e"
                 id="use1085"
                 y="0"
                 width="100%"
                 height="100%" />
              <use
                 x="95.410156"
                 xlink:href="#DejaVuSans-35"
                 id="use1087"
                 y="0"
                 width="100%"
                 height="100%" />
            </g>
          </g>
        </g>
        <g
           id="ytick_5">
          <g
             id="line2d_14">
            <g
               id="g1095">
              <use
                 style="stroke:#000000;stroke-width:0.8"
                 x="54"
                 xlink:href="#m5caf00551d"
                 y="113.89864"
                 id="use1093"
                 width="100%"
                 height="100%" />
            </g>
          </g>
          <g
             id="text_15">
            <!-- 2.0 -->
            <g
               transform="matrix(0.1,0,0,-0.1,31.096875,117.69786)"
               id="g1104">
              <use
                 xlink:href="#DejaVuSans-32"
                 id="use1098"
                 x="0"
                 y="0"
                 width="100%"
                 height="100%" />
              <use
                 x="63.623047"
                 xlink:href="#DejaVuSans-2e"
                 id="use1100"
                 y="0"
                 width="100%"
                 height="100%" />
              <use
                 x="95.410156"
                 xlink:href="#DejaVuSans-30"
                 id="use1102"
                 y="0"
                 width="100%"
                 height="100%" />
            </g>
          </g>
        </g>
        <g
           id="ytick_6">
          <g
             id="line2d_15">
            <g
               id="g1110">
              <use
                 style="stroke:#000000;stroke-width:0.8"
                 x="54"
                 xlink:href="#m5caf00551d"
                 y="80.157135"
                 id="use1108"
                 width="100%"
                 height="100%" />
            </g>
          </g>
          <g
             id="text_16">
            <!-- 2.5 -->
            <g
               transform="matrix(0.1,0,0,-0.1,31.096875,83.956351)"
               id="g1119">
              <use
                 xlink:href="#DejaVuSans-32"
                 id="use1113"
                 x="0"
                 y="0"
                 width="100%"
                 height="100%" />
              <use
                 x="63.623047"
                 xlink:href="#DejaVuSans-2e"
                 id="use1115"
                 y="0"
                 width="100%"
                 height="100%" />
              <use
                 x="95.410156"
                 xlink:href="#DejaVuSans-35"
                 id="use1117"
                 y="0"
                 width="100%"
                 height="100%" />
            </g>
          </g>
        </g>
        <g
           id="ytick_7">
          <g
             id="line2d_16">
            <g
               id="g1125">
              <use
                 style="stroke:#000000;stroke-width:0.8"
                 x="54"
                 xlink:href="#m5caf00551d"
                 y="46.415627"
                 id="use1123"
                 width="100%"
                 height="100%" />
            </g>
          </g>
          <g
             id="text_17">
            <!-- 3.0 -->
            <g
               transform="matrix(0.1,0,0,-0.1,31.096875,50.214845)"
               id="g1134">
              <use
                 xlink:href="#DejaVuSans-33"
                 id="use1128"
                 x="0"
                 y="0"
                 width="100%"
                 height="100%" />
              <use
                 x="63.623047"
                 xlink:href="#DejaVuSans-2e"
                 id="use1130"
                 y="0"
                 width="100%"
                 height="100%" />
              <use
                 x="95.410156"
                 xlink:href="#DejaVuSans-30"
                 id="use1132"
                 y="0"
                 width="100%"
                 height="100%" />
            </g>
          </g>
        </g>
        <g
           id="text_18">
          <!-- Error(Train/Test) -->
          <g
             transform="matrix(0,-0.1,-0.1,0,25.017187,182.89016)"
             id="g1179">
            <defs
               id="defs1143">
              <path
                 d="M 628,4666 H 3578 V 4134 H 1259 V 2753 H 3481 V 2222 H 1259 V 531 H 3634 V 0 H 628 Z"
                 id="DejaVuSans-45"
                 transform="scale(0.015625)" />
              <path
                 d="m 2631,2963 q -97,56 -211,82 -114,27 -251,27 -488,0 -749,-317 -261,-317 -261,-911 V 0 H 581 v 3500 h 578 v -544 q 182,319 472,473 291,155 707,155 59,0 131,-8 72,-7 159,-23 z"
                 id="DejaVuSans-72"
                 transform="scale(0.015625)" />
              <path
                 d="m 1959,3097 q -462,0 -731,-361 -269,-361 -269,-989 0,-628 267,-989 268,-361 733,-361 460,0 728,362 269,363 269,988 0,622 -269,986 -268,364 -728,364 z m 0,487 q 750,0 1178,-488 429,-487 429,-1349 Q 3566,888 3137,398 2709,-91 1959,-91 1206,-91 779,398 353,888 353,1747 q 0,862 426,1349 427,488 1180,488 z"
                 id="DejaVuSans-6f"
                 transform="scale(0.015625)" />
              <path
                 d="M -19,4666 H 3928 V 4134 H 2272 V 0 H 1638 V 4134 H -19 Z"
                 id="DejaVuSans-54"
                 transform="scale(0.015625)" />
              <path
                 d="m 1625,4666 h 531 L 531,-594 H 0 Z"
                 id="DejaVuSans-2f"
                 transform="scale(0.015625)" />
            </defs>
            <use
               xlink:href="#DejaVuSans-45"
               id="use1145"
               x="0"
               y="0"
               width="100%"
               height="100%" />
            <use
               x="63.183594"
               xlink:href="#DejaVuSans-72"
               id="use1147"
               y="0"
               width="100%"
               height="100%" />
            <use
               x="102.54688"
               xlink:href="#DejaVuSans-72"
               id="use1149"
               y="0"
               width="100%"
               height="100%" />
            <use
               x="141.41016"
               xlink:href="#DejaVuSans-6f"
               id="use1151"
               y="0"
               width="100%"
               height="100%" />
            <use
               x="202.5918"
               xlink:href="#DejaVuSans-72"
               id="use1153"
               y="0"
               width="100%"
               height="100%" />
            <use
               x="243.70508"
               xlink:href="#DejaVuSans-28"
               id="use1155"
               y="0"
               width="100%"
               height="100%" />
            <use
               x="282.71875"
               xlink:href="#DejaVuSans-54"
               id="use1157"
               y="0"
               width="100%"
               height="100%" />
            <use
               x="329.05273"
               xlink:href="#DejaVuSans-72"
               id="use1159"
               y="0"
               width="100%"
               height="100%" />
            <use
               x="370.16602"
               xlink:href="#DejaVuSans-61"
               id="use1161"
               y="0"
               width="100%"
               height="100%" />
            <use
               x="431.44531"
               xlink:href="#DejaVuSans-69"
               id="use1163"
               y="0"
               width="100%"
               height="100%" />
            <use
               x="459.22852"
               xlink:href="#DejaVuSans-6e"
               id="use1165"
               y="0"
               width="100%"
               height="100%" />
            <use
               x="522.60742"
               xlink:href="#DejaVuSans-2f"
               id="use1167"
               y="0"
               width="100%"
               height="100%" />
            <use
               x="556.29883"
               xlink:href="#DejaVuSans-54"
               id="use1169"
               y="0"
               width="100%"
               height="100%" />
            <use
               x="600.38281"
               xlink:href="#DejaVuSans-65"
               id="use1171"
               y="0"
               width="100%"
               height="100%" />
            <use
               x="661.90625"
               xlink:href="#DejaVuSans-73"
               id="use1173"
               y="0"
               width="100%"
               height="100%" />
            <use
               x="714.00586"
               xlink:href="#DejaVuSans-74"
               id="use1175"
               y="0"
               width="100%"
               height="100%" />
            <use
               x="753.21484"
               xlink:href="#DejaVuSans-29"
               id="use1177"
               y="0"
               width="100%"
               height="100%" />
          </g>
        </g>
      </g>
      <g
         id="line2d_17">
        <path
           clip-path="url(#pc45546e6d4)"
           d="m 69.218182,241.95658 76.090908,-61.7836 76.09091,-12.5953 76.09091,-1.22991 76.09091,3.85088"
           style="fill:none;stroke:#1f77b4;stroke-width:1.5;stroke-linecap:square"
           id="path1183" />
      </g>
      <g
         id="line2d_18">
        <path
           clip-path="url(#pc45546e6d4)"
           d="m 69.218182,44.443636 76.090908,72.986354 76.09091,11.8795 76.09091,12.4567 76.09091,10.46898"
           style="fill:none;stroke:#008000;stroke-width:1.5;stroke-linecap:square"
           id="path1186" />
      </g>
      <g
         id="line2d_19">
        <path
           clip-path="url(#pc45546e6d4)"
           d="M 69.218182,242.11636 H 145.30909 221.4 h 76.09091 76.09091"
           style="fill:none;stroke:#ff0000;stroke-width:1.5;stroke-linecap:square"
           id="path1189" />
      </g>
      <g
         id="patch_3">
        <path
           d="M 54,252 V 34.56"
           style="fill:none;stroke:#000000;stroke-width:0.8;stroke-linecap:square;stroke-linejoin:miter"
           id="path1192" />
      </g>
      <g
         id="patch_4">
        <path
           d="M 388.8,252 V 34.56"
           style="fill:none;stroke:#000000;stroke-width:0.8;stroke-linecap:square;stroke-linejoin:miter"
           id="path1195" />
      </g>
      <g
         id="patch_5">
        <path
           d="M 54,252 H 388.8"
           style="fill:none;stroke:#000000;stroke-width:0.8;stroke-linecap:square;stroke-linejoin:miter"
           id="path1198" />
      </g>
      <g
         id="patch_6">
        <path
           d="M 54,34.56 H 388.8"
           style="fill:none;stroke:#000000;stroke-width:0.8;stroke-linecap:square;stroke-linejoin:miter"
           id="path1201" />
      </g>
      <g
         id="legend_1">
        <g
           id="patch_7">
          <path
             d="M 298.26406,71.91625 H 381.8 q 2,0 2,-2 V 41.56 q 0,-2 -2,-2 h -83.53594 q -2,0 -2,2 v 28.35625 q 0,2 2,2 z"
             style="opacity:0.8;fill:#ffffff;stroke:#cccccc;stroke-linejoin:miter"
             id="path1204" />
        </g>
        <g
           id="line2d_20">
          <path
             d="m 300.26406,47.658437 h 20"
             style="fill:none;stroke:#1f77b4;stroke-width:1.5;stroke-linecap:square"
             id="path1207" />
        </g>
        <g
           id="line2d_21" />
        <g
           id="text_19">
          <!-- Train Error -->
          <g
             transform="matrix(0.1,0,0,-0.1,328.26406,51.158437)"
             id="g1233">
            <use
               xlink:href="#DejaVuSans-54"
               id="use1211"
               x="0"
               y="0"
               width="100%"
               height="100%" />
            <use
               x="46.333984"
               xlink:href="#DejaVuSans-72"
               id="use1213"
               y="0"
               width="100%"
               height="100%" />
            <use
               x="87.447266"
               xlink:href="#DejaVuSans-61"
               id="use1215"
               y="0"
               width="100%"
               height="100%" />
            <use
               x="148.72656"
               xlink:href="#DejaVuSans-69"
               id="use1217"
               y="0"
               width="100%"
               height="100%" />
            <use
               x="176.50977"
               xlink:href="#DejaVuSans-6e"
               id="use1219"
               y="0"
               width="100%"
               height="100%" />
            <use
               x="239.88867"
               xlink:href="#DejaVuSans-20"
               id="use1221"
               y="0"
               width="100%"
               height="100%" />
            <use
               x="271.67578"
               xlink:href="#DejaVuSans-45"
               id="use1223"
               y="0"
               width="100%"
               height="100%" />
            <use
               x="334.85938"
               xlink:href="#DejaVuSans-72"
               id="use1225"
               y="0"
               width="100%"
               height="100%" />
            <use
               x="374.22266"
               xlink:href="#DejaVuSans-72"
               id="use1227"
               y="0"
               width="100%"
               height="100%" />
            <use
               x="413.08594"
               xlink:href="#DejaVuSans-6f"
               id="use1229"
               y="0"
               width="100%"
               height="100%" />
            <use
               x="474.26758"
               xlink:href="#DejaVuSans-72"
               id="use1231"
               y="0"
               width="100%"
               height="100%" />
          </g>
        </g>
        <g
           id="line2d_22">
          <path
             d="m 300.26406,62.336562 h 20"
             style="fill:none;stroke:#008000;stroke-width:1.5;stroke-linecap:square"
             id="path1236" />
        </g>
        <g
           id="line2d_23" />
        <g
           id="text_20">
          <!-- Test Error -->
          <g
             transform="matrix(0.1,0,0,-0.1,328.26406,65.836562)"
             id="g1260">
            <use
               xlink:href="#DejaVuSans-54"
               id="use1240"
               x="0"
               y="0"
               width="100%"
               height="100%" />
            <use
               x="44.083984"
               xlink:href="#DejaVuSans-65"
               id="use1242"
               y="0"
               width="100%"
               height="100%" />
            <use
               x="105.60742"
               xlink:href="#DejaVuSans-73"
               id="use1244"
               y="0"
               width="100%"
               height="100%" />
            <use
               x="157.70703"
               xlink:href="#DejaVuSans-74"
               id="use1246"
               y="0"
               width="100%"
               height="100%" />
            <use
               x="196.91602"
               xlink:href="#DejaVuSans-20"
               id="use1248"
               y="0"
               width="100%"
               height="100%" />
            <use
               x="228.70312"
               xlink:href="#DejaVuSans-45"
               id="use1250"
               y="0"
               width="100%"
               height="100%" />
            <use
               x="291.88672"
               xlink:href="#DejaVuSans-72"
               id="use1252"
               y="0"
               width="100%"
               height="100%" />
            <use
               x="331.25"
               xlink:href="#DejaVuSans-72"
               id="use1254"
               y="0"
               width="100%"
               height="100%" />
            <use
               x="370.11328"
               xlink:href="#DejaVuSans-6f"
               id="use1256"
               y="0"
               width="100%"
               height="100%" />
            <use
               x="431.29492"
               xlink:href="#DejaVuSans-72"
               id="use1258"
               y="0"
               width="100%"
               height="100%" />
          </g>
        </g>
      </g>
    </g>
  </g>
  <defs
     id="defs1269">
    <clipPath
       id="pc45546e6d4">
      <rect
         height="217.44"
         width="334.79999"
         x="54"
         y="34.560001"
         id="rect1266" />
    </clipPath>
  </defs>
  <path
     style="fill:#ff0000;stroke:#fb0008;stroke-width:1.55906;stroke-linecap:butt;stroke-linejoin:miter;stroke-miterlimit:4;stroke-dasharray:none;stroke-opacity:1"
     d="m 69.218182,242.11636 -42.488428,0.0238"
     id="path1421" />
  <path
     style="fill:none;stroke:#000000;stroke-width:0.75px;stroke-linecap:butt;stroke-linejoin:miter;stroke-opacity:1;marker-end:url(#Arrow1Lend)"
     d="m 69.218182,242.11636 36.488188,69.81716"
     id="path1721" />
</svg>
